<?xml version="1.0" encoding="UTF-8"?>
<!DOCTYPE svg PUBLIC "-//W3C//DTD SVG 1.1//EN" "http://www.w3.org/Graphics/SVG/1.1/DTD/svg11.dtd">
<svg xmlns="http://www.w3.org/2000/svg" version="1.1" width="512px" height="512px" style="shape-rendering:geometricPrecision; text-rendering:geometricPrecision; image-rendering:optimizeQuality; fill-rule:evenodd; clip-rule:evenodd" xmlns:xlink="http://www.w3.org/1999/xlink">
<g><path style="opacity:0.99" fill="#292f32" d="M 400.5,-0.5 C 407.5,-0.5 414.5,-0.5 421.5,-0.5C 440.912,5.54292 457.912,15.7096 472.5,30C 490.688,46.572 503.688,66.4053 511.5,89.5C 511.5,96.5 511.5,103.5 511.5,110.5C 506.094,130.415 494.427,145.582 476.5,156C 502.054,216.303 504.22,277.47 483,339.5C 453.877,412.623 402.044,461.79 327.5,487C 269.042,503.985 211.875,500.485 156,476.5C 145.582,494.427 130.415,506.094 110.5,511.5C 103.5,511.5 96.5,511.5 89.5,511.5C 70.0885,505.457 53.0885,495.29 38.5,481C 20.312,464.428 7.31196,444.595 -0.5,421.5C -0.5,414.5 -0.5,407.5 -0.5,400.5C 4.9059,380.585 16.5726,365.418 34.5,355C 8.94625,294.697 6.77958,233.53 28,171.5C 57.123,98.3767 108.956,49.21 183.5,24C 241.959,6.9894 299.126,10.4894 355,34.5C 365.418,16.5726 380.585,4.9059 400.5,-0.5 Z M 396.5,31.5 C 410.023,30.1305 422.356,33.2972 433.5,41C 452.714,53.8727 467.214,70.706 477,91.5C 482.348,108.439 479.015,123.439 467,136.5C 444.167,97.6667 413.333,66.8333 374.5,44C 381.148,38.5127 388.481,34.346 396.5,31.5 Z M 43.5,374.5 C 66.6421,413.142 97.6421,443.975 136.5,467C 119.933,481.33 101.933,483.33 82.5,473C 59.9029,459.41 43.4029,440.576 33,416.5C 29.7945,404.433 31.4612,393.1 38,382.5C 40.0795,379.935 41.9128,377.268 43.5,374.5 Z"/></g>
<g><path style="opacity:1" fill="#feab33" d="M 233.5,62.5 C 318.462,57.4454 382.628,91.1121 426,163.5C 449.12,208.002 454.787,254.668 443,303.5C 421.222,376.944 373.389,423.778 299.5,444C 221.677,459.061 156.844,436.894 105,377.5C 64.3538,324.03 52.6871,264.697 70,199.5C 97.647,121.679 152.147,76.0123 233.5,62.5 Z"/></g>
<g><path style="opacity:1" fill="#fee7b4" d="M 266.5,141.5 C 266.5,147.833 266.5,154.167 266.5,160.5C 259.741,160.942 253.074,161.942 246.5,163.5C 238.036,154.535 229.369,145.702 220.5,137C 215.403,138.905 210.07,139.571 204.5,139C 194.496,133.998 191.33,126.165 195,115.5C 199.032,109.733 204.532,107.067 211.5,107.5C 213.277,90.9018 221.943,85.7351 237.5,92C 242.895,96.2948 244.729,101.795 243,108.5C 241.686,111.089 241.019,113.756 241,116.5C 249.368,125.036 257.868,133.369 266.5,141.5 Z"/></g>
<g><path style="opacity:1" fill="#c1694e" d="M 246.5,163.5 C 253.074,161.942 259.741,160.942 266.5,160.5C 266.5,154.167 266.5,147.833 266.5,141.5C 267.644,139.9 268.811,138.233 270,136.5C 280.75,147.589 292.917,156.755 306.5,164C 319.315,167.763 332.315,170.763 345.5,173C 367.252,176.955 385.086,187.455 399,204.5C 411.724,220.661 415.057,238.661 409,258.5C 398.437,293.694 374.937,309.194 338.5,305C 314.086,294.92 296.586,277.753 286,253.5C 281.282,235.958 275.949,218.625 270,201.5C 260.76,189.421 250.593,178.088 239.5,167.5C 241.381,165.424 243.715,164.09 246.5,163.5 Z"/></g>
<g><path style="opacity:1" fill="#78b154" d="M 139.5,184.5 C 144.844,184.334 150.177,184.501 155.5,185C 156.804,185.804 157.471,186.971 157.5,188.5C 156.863,191.107 155.696,193.44 154,195.5C 144.761,204.31 137.761,214.644 133,226.5C 131.487,235.781 133.154,244.448 138,252.5C 144.333,260.833 150.667,269.167 157,277.5C 157.863,279.749 157.363,281.582 155.5,283C 126.917,284.756 108.417,271.923 100,244.5C 96.9277,213.611 110.094,193.611 139.5,184.5 Z"/></g>
<g><path style="opacity:1" fill="#f4900c" d="M 207.5,212.5 C 224.639,211.641 235.806,219.308 241,235.5C 241.513,259.652 229.68,270.819 205.5,269C 189.519,263.004 182.686,251.504 185,234.5C 188.749,223.23 196.249,215.897 207.5,212.5 Z"/></g>
<g><path style="opacity:1" fill="#f4900d" d="M 151.5,312.5 C 164.006,311.512 170.173,317.178 170,329.5C 166.621,338.608 160.121,342.108 150.5,340C 141.503,334.851 139.336,327.684 144,318.5C 146.114,315.879 148.614,313.879 151.5,312.5 Z"/></g>
<g><path style="opacity:1" fill="#f4900c" d="M 336.5,326.5 C 350.446,326.056 356.28,332.723 354,346.5C 349.968,354.037 343.802,356.537 335.5,354C 326.528,348.89 324.361,341.723 329,332.5C 331.114,329.879 333.614,327.879 336.5,326.5 Z"/></g>
<g><path style="opacity:1" fill="#79b154" d="M 224.5,329.5 C 226.722,329.178 228.556,329.845 230,331.5C 234.589,341.967 239.923,351.967 246,361.5C 251.729,368.365 259.062,371.698 268,371.5C 277.068,371.346 285.902,369.846 294.5,367C 297.833,366.333 301.167,366.333 304.5,367C 305.598,369.498 305.432,371.998 304,374.5C 292.621,395.439 275.121,403.939 251.5,400C 226.393,391.542 214.893,374.042 217,347.5C 218.635,341.083 221.135,335.083 224.5,329.5 Z"/></g>
</svg>
